<?xml version="1.0" encoding="UTF-8" standalone="no"?>
<!-- Generator: Adobe Illustrator 16.0.0, SVG Export Plug-In . SVG Version: 6.00 Build 0)  -->

<svg
   xmlns:dc="http://purl.org/dc/elements/1.1/"
   xmlns:cc="http://creativecommons.org/ns#"
   xmlns:rdf="http://www.w3.org/1999/02/22-rdf-syntax-ns#"
   xmlns:svg="http://www.w3.org/2000/svg"
   xmlns="http://www.w3.org/2000/svg"
   xmlns:xlink="http://www.w3.org/1999/xlink"
   xmlns:sodipodi="http://sodipodi.sourceforge.net/DTD/sodipodi-0.dtd"
   xmlns:inkscape="http://www.inkscape.org/namespaces/inkscape"
   version="1.1"
   id="Layer_1"
   x="0px"
   y="0px"
   width="341"
   height="104"
   viewBox="0 0 341 104"
   enable-background="new 0 0 465.681 221.668"
   xml:space="preserve"
   inkscape:version="0.91 r13725"
   sodipodi:docname="logoyellow.svg"><metadata
     id="metadata69"><rdf:RDF><cc:Work
         rdf:about=""><dc:format>image/svg+xml</dc:format><dc:type
           rdf:resource="http://purl.org/dc/dcmitype/StillImage" /><dc:title /></cc:Work></rdf:RDF></metadata><defs
     id="defs67" /><sodipodi:namedview
     pagecolor="#ffffff"
     bordercolor="#666666"
     borderopacity="1"
     objecttolerance="10"
     gridtolerance="10"
     guidetolerance="10"
     inkscape:pageopacity="0"
     inkscape:pageshadow="2"
     inkscape:window-width="1920"
     inkscape:window-height="1017"
     id="namedview65"
     showgrid="false"
     inkscape:snap-page="true"
     inkscape:snap-bbox="true"
     inkscape:bbox-paths="true"
     inkscape:bbox-nodes="true"
     inkscape:snap-bbox-edge-midpoints="true"
     inkscape:snap-bbox-midpoints="true"
     inkscape:zoom="2.7572523"
     inkscape:cx="169.74955"
     inkscape:cy="18.015946"
     inkscape:window-x="-8"
     inkscape:window-y="-8"
     inkscape:window-maximized="1"
     inkscape:current-layer="g4226" /><g
     id="g3"
     transform="translate(-58.028785,-59.639215)"><defs
       id="defs5"><rect
         id="SVGID_1_"
         width="465.681"
         height="221.668"
         x="0"
         y="0" /></defs><clipPath
       id="SVGID_2_"><use
         xlink:href="#SVGID_1_"
         overflow="visible"
         id="use9"
         style="overflow:visible"
         x="0"
         y="0"
         width="100%"
         height="100%" /></clipPath><g
       id="g4197"><g
         id="g4226"><path
           clip-path="url(#SVGID_2_)"
           d="m 63.027,65.454 7.959,0 0,21.58 c 0,3.714 -0.059,7.415 -0.176,11.1 -0.119,3.685 -0.06,7.149 0.176,10.391 0.295,4.128 1.71,7.385 4.246,9.772 2.534,2.388 5.895,3.73 10.082,4.024 l 0,7.871 c -3.361,0.177 -6.294,-0.235 -8.8,-1.238 -2.507,-1.002 -4.643,-2.356 -6.412,-4.068 -1.711,-1.532 -3.272,-3.463 -4.687,-5.792 -1.415,-2.328 -2.242,-4.909 -2.477,-7.74 -0.177,-1.827 -0.221,-3.699 -0.132,-5.616 0.088,-1.915 0.132,-3.847 0.132,-5.793 l 0,-34.137 c 0,-0.235 0.029,-0.354 0.089,-0.354"
           id="path11"
           inkscape:connector-curvature="0"
           style="fill:#feae3b;fill-opacity:1"
           transform="translate(-3.8903255,1.011215)" /><path
           clip-path="url(#SVGID_2_)"
           d="m 136.409,89.078 c 1.381,-1.578 2.861,-3.041 4.439,-4.39 1.579,-1.347 3.355,-2.499 5.328,-3.453 1.973,-0.953 4.144,-1.661 6.512,-2.121 2.367,-0.46 4.998,-0.593 7.892,-0.394 2.566,0.196 4.949,0.773 7.154,1.725 2.202,0.955 4.193,2.171 5.968,3.651 1.776,1.48 3.321,3.174 4.638,5.082 1.315,1.908 2.367,3.88 3.157,5.919 0.92,2.303 1.512,4.835 1.776,7.597 0.262,2.762 0.378,5.657 0.345,8.682 -0.034,3.026 -0.132,6.134 -0.296,9.323 -0.165,3.192 -0.214,6.364 -0.148,9.521 l -9.472,0 c -0.263,-4.604 -0.246,-9.142 0.05,-13.615 0.296,-4.473 0.279,-8.781 -0.05,-12.924 -0.197,-2.171 -0.724,-4.194 -1.578,-6.069 -0.856,-1.874 -2.007,-3.502 -3.453,-4.883 -1.448,-1.381 -3.125,-2.466 -5.032,-3.255 -1.908,-0.791 -3.98,-1.185 -6.216,-1.185 -2.368,0 -4.506,0.429 -6.412,1.283 -1.909,0.856 -3.552,1.99 -4.934,3.403 -1.381,1.415 -2.483,3.093 -3.305,5.032 -0.823,1.941 -1.331,4.03 -1.529,6.265 -0.33,4.013 -0.345,8.223 -0.049,12.629 0.296,4.407 0.311,8.847 0.049,13.319 l -9.472,0 c -0.197,-3.617 -0.214,-7.235 -0.049,-10.854 0.164,-3.616 0.198,-7.069 0.099,-10.358 -0.099,-3.289 -0.478,-6.298 -1.135,-9.029 -0.658,-2.728 -1.874,-4.982 -3.65,-6.757 -1.251,-1.316 -2.861,-2.467 -4.835,-3.454 -1.973,-0.987 -4.209,-1.48 -6.709,-1.48 -4.735,0.066 -8.518,1.596 -11.345,4.588 -2.829,2.994 -4.44,6.726 -4.835,11.198 -0.33,4.013 -0.345,8.238 -0.049,12.679 0.296,4.439 0.312,8.929 0.049,13.467 l -9.471,0 c 0.131,-2.696 0.163,-5.344 0.098,-7.942 -0.066,-2.597 -0.148,-5.131 -0.246,-7.597 -0.099,-2.467 -0.148,-4.851 -0.148,-7.153 0,-2.302 0.098,-4.538 0.296,-6.709 0.262,-2.893 1.117,-5.624 2.565,-8.188 1.446,-2.566 3.024,-4.702 4.735,-6.414 1.777,-1.84 3.93,-3.468 6.463,-4.884 2.531,-1.413 5.343,-2.284 8.435,-2.613 2.96,-0.263 5.64,-0.181 8.041,0.246 2.4,0.428 4.588,1.134 6.561,2.121 1.974,0.986 3.765,2.171 5.377,3.552 1.611,1.381 3.074,2.861 4.391,4.439"
           id="path13"
           inkscape:connector-curvature="0"
           style="fill:#feae3b;fill-opacity:1"
           transform="translate(-3.8903255,1.011215)" /><path
           clip-path="url(#SVGID_2_)"
           d="m 233.021,89.078 c 1.381,-1.578 2.861,-3.041 4.44,-4.39 1.577,-1.347 3.354,-2.499 5.327,-3.453 1.973,-0.953 4.144,-1.661 6.512,-2.121 2.366,-0.46 4.998,-0.593 7.893,-0.394 2.565,0.196 4.948,0.773 7.153,1.725 2.203,0.955 4.192,2.171 5.968,3.651 1.777,1.48 3.321,3.174 4.639,5.082 1.313,1.908 2.367,3.88 3.156,5.919 0.92,2.303 1.513,4.835 1.776,7.597 0.262,2.762 0.377,5.657 0.346,8.682 -0.034,3.026 -0.133,6.134 -0.297,9.323 -0.165,3.192 -0.215,6.364 -0.147,9.521 l -9.473,0 c -0.263,-4.604 -0.246,-9.142 0.051,-13.615 0.295,-4.473 0.279,-8.781 -0.051,-12.924 -0.196,-2.171 -0.724,-4.194 -1.577,-6.069 -0.855,-1.874 -2.008,-3.502 -3.453,-4.883 -1.449,-1.381 -3.125,-2.466 -5.033,-3.255 -1.907,-0.791 -3.979,-1.185 -6.215,-1.185 -2.369,0 -4.506,0.429 -6.413,1.283 -1.908,0.856 -3.552,1.99 -4.933,3.403 -1.382,1.415 -2.483,3.093 -3.306,5.032 -0.822,1.941 -1.331,4.03 -1.529,6.265 -0.329,4.013 -0.345,8.223 -0.049,12.629 0.296,4.407 0.312,8.847 0.049,13.319 l -9.471,0 c -0.197,-3.617 -0.215,-7.235 -0.05,-10.854 0.164,-3.616 0.198,-7.069 0.099,-10.358 -0.099,-3.289 -0.477,-6.298 -1.135,-9.029 -0.657,-2.728 -1.874,-4.982 -3.65,-6.757 -1.25,-1.316 -2.861,-2.467 -4.834,-3.454 -1.974,-0.987 -4.21,-1.48 -6.71,-1.48 -4.735,0.066 -8.518,1.596 -11.345,4.588 -2.829,2.994 -4.44,6.726 -4.834,11.198 -0.331,4.013 -0.345,8.238 -0.05,12.679 0.296,4.439 0.311,8.929 0.05,13.467 l -9.472,0 c 0.131,-2.696 0.164,-5.344 0.099,-7.942 -0.067,-2.597 -0.148,-5.131 -0.247,-7.597 -0.099,-2.467 -0.148,-4.851 -0.148,-7.153 0,-2.302 0.099,-4.538 0.296,-6.709 0.262,-2.893 1.118,-5.624 2.566,-8.188 1.446,-2.566 3.023,-4.702 4.735,-6.414 1.776,-1.84 3.929,-3.468 6.462,-4.884 2.531,-1.413 5.344,-2.284 8.435,-2.613 2.96,-0.263 5.64,-0.181 8.041,0.246 2.4,0.428 4.588,1.134 6.561,2.121 1.973,0.986 3.765,2.171 5.377,3.552 1.61,1.381 3.074,2.861 4.391,4.439"
           id="path15"
           inkscape:connector-curvature="0"
           style="fill:#feae3b;fill-opacity:1"
           transform="translate(-3.8903255,1.011215)" /><path
           clip-path="url(#SVGID_2_)"
           d="m 315.274,126.188 c -3.055,3.055 -7.026,4.521 -10.997,4.521 -8.493,0 -15.52,-6.049 -15.52,-15.581 0,-9.531 6.782,-15.581 15.52,-15.581 3.971,0 7.942,1.528 10.997,4.522 l -1.894,1.894 c -2.444,-2.444 -5.865,-3.605 -9.104,-3.605 -6.844,0 -12.587,4.643 -12.587,12.77 0,8.126 5.743,12.771 12.587,12.771 3.238,0 6.537,-1.283 8.98,-3.728 l 2.018,2.017 z"
           id="path17"
           inkscape:connector-curvature="0"
           style="fill:#feae3b;fill-opacity:1"
           transform="translate(-3.8903255,1.011215)" /><path
           clip-path="url(#SVGID_2_)"
           d="m 347.05,100.038 0,30.183 -2.993,0 0,-6.415 c -2.933,4.704 -7.455,6.904 -12.342,6.904 -8.432,0 -15.336,-6.354 -15.336,-15.581 0,-9.226 6.904,-15.457 15.336,-15.457 4.887,0 9.837,2.26 12.342,6.965 l 0,-6.599 2.993,0 z m -27.677,15.091 c 0,7.577 5.498,12.647 12.342,12.647 16.802,0 16.802,-25.233 0,-25.233 -6.844,0 -12.342,5.01 -12.342,12.586"
           id="path19"
           inkscape:connector-curvature="0"
           style="fill:#feae3b;fill-opacity:1"
           transform="translate(-3.8903255,1.011215)" /><path
           clip-path="url(#SVGID_2_)"
           d="m 356.703,100.038 0.122,5.376 c 1.895,-4.093 6.171,-5.682 10.021,-5.682 2.261,-0.06 4.46,0.55 6.477,1.772 l -1.345,2.444 c -1.589,-0.977 -3.36,-1.405 -5.132,-1.405 -5.622,0.061 -9.96,4.582 -9.96,10.081 l 0,17.597 -2.993,0 0,-30.183 2.81,0 z"
           id="path21"
           inkscape:connector-curvature="0"
           style="fill:#feae3b;fill-opacity:1"
           transform="translate(-3.8903255,1.011215)" /><path
           clip-path="url(#SVGID_2_)"
           d="m 372.557,115.129 c 0,-9.042 6.844,-15.58 15.336,-15.58 8.493,0 16.069,5.193 14.908,16.985 l -27.188,0 c 0.611,7.088 6.049,11.242 12.28,11.242 3.972,0 8.615,-1.588 10.876,-4.582 l 2.139,1.71 c -2.933,3.85 -8.188,5.806 -13.015,5.806 -8.493,0 -15.336,-5.988 -15.336,-15.581 m 27.555,-1.222 c -0.061,-7.454 -4.949,-11.608 -12.22,-11.608 -6.231,0 -11.608,4.215 -12.28,11.608 l 24.5,0 z"
           id="path23"
           inkscape:connector-curvature="0"
           style="fill:#feae3b;fill-opacity:1"
           transform="translate(-3.8903255,1.011215)" /><path
           clip-path="url(#SVGID_2_)"
           d="m 67.194,141.607 0,3.551 4.004,0 0,0.978 -4.004,0 0,7.174 c 0,1.597 0.334,2.717 2.169,2.717 0.572,0 1.215,-0.19 1.811,-0.478 l 0.405,0.955 c -0.739,0.356 -1.477,0.595 -2.216,0.595 -2.502,0 -3.313,-1.478 -3.313,-3.789 l 0,-7.174 -2.502,0 0,-0.978 2.502,0 0,-3.432 1.144,-0.119 z"
           id="path25"
           inkscape:connector-curvature="0"
           style="fill:#feffff;fill-opacity:1"
           transform="translate(-3.8903255,1.011215)" /><path
           clip-path="url(#SVGID_2_)"
           d="m 80.039,140.249 0,7.104 c 0.953,-1.693 2.598,-2.337 4.242,-2.361 3.289,0 4.934,2.121 4.934,5.196 l 0,6.744 -1.144,0 0,-6.744 c 0,-2.432 -1.144,-4.075 -3.79,-4.075 -2.478,0 -4.194,1.907 -4.194,4.36 l 0,6.459 -1.168,0 0,-16.683 1.12,0 z"
           id="path27"
           inkscape:connector-curvature="0"
           style="fill:#feffff;fill-opacity:1"
           transform="translate(-3.8903255,1.011215)" /><path
           clip-path="url(#SVGID_2_)"
           d="m 97.23,151.046 c 0,-3.528 2.669,-6.078 5.982,-6.078 3.313,0 6.268,2.025 5.815,6.626 l -10.605,0 c 0.238,2.765 2.36,4.385 4.79,4.385 1.55,0 3.361,-0.62 4.243,-1.787 l 0.834,0.667 c -1.144,1.501 -3.194,2.265 -5.077,2.265 -3.313,-0.001 -5.982,-2.337 -5.982,-6.078 m 10.749,-0.478 c -0.024,-2.907 -1.931,-4.528 -4.767,-4.528 -2.43,0 -4.528,1.645 -4.79,4.528 l 9.557,0 z"
           id="path29"
           inkscape:connector-curvature="0"
           style="fill:#feffff;fill-opacity:1"
           transform="translate(-3.8903255,1.011215)" /><path
           clip-path="url(#SVGID_2_)"
           d="m 138.697,155.358 c -1.192,1.192 -2.741,1.765 -4.29,1.765 -3.313,0 -6.054,-2.36 -6.054,-6.077 0,-3.719 2.646,-6.078 6.054,-6.078 1.549,0 3.098,0.596 4.29,1.764 l -0.739,0.738 c -0.953,-0.953 -2.288,-1.406 -3.551,-1.406 -2.669,0 -4.91,1.812 -4.91,4.982 0,3.169 2.241,4.98 4.91,4.98 1.263,0 2.55,-0.501 3.503,-1.454 l 0.787,0.786 z"
           id="path31"
           inkscape:connector-curvature="0"
           style="fill:#feffff;fill-opacity:1"
           transform="translate(-3.8903255,1.011215)" /><path
           clip-path="url(#SVGID_2_)"
           d="m 147.542,140.249 0,7.104 c 0.953,-1.693 2.598,-2.337 4.242,-2.361 3.289,0 4.934,2.121 4.934,5.196 l 0,6.744 -1.144,0 0,-6.744 c 0,-2.432 -1.144,-4.075 -3.79,-4.075 -2.478,0 -4.194,1.907 -4.194,4.36 l 0,6.459 -1.168,0 0,-16.683 1.12,0 z"
           id="path33"
           inkscape:connector-curvature="0"
           style="fill:#feffff;fill-opacity:1"
           transform="translate(-3.8903255,1.011215)" /><path
           clip-path="url(#SVGID_2_)"
           d="m 166.993,141.321 c 0,1.239 -1.883,1.239 -1.883,0 0,-1.239 1.883,-1.239 1.883,0 m -1.549,15.611 1.167,0 0,-11.82 -1.167,0 0,11.82 z"
           id="path35"
           inkscape:connector-curvature="0"
           style="fill:#feffff;fill-opacity:1"
           transform="translate(-3.8903255,1.011215)" /><rect
           x="175.537"
           y="140.24899"
           clip-path="url(#SVGID_2_)"
           width="1.1670001"
           height="16.683001"
           id="rect37"
           style="fill:#feffff;fill-opacity:1"
           transform="translate(-3.8903255,1.011215)" /><path
           clip-path="url(#SVGID_2_)"
           d="m 196.894,140.249 0,16.683 -1.144,0 0,-2.598 c -0.977,1.787 -2.907,2.789 -4.909,2.789 -3.289,0 -5.887,-2.169 -5.887,-6.078 0,-3.885 2.622,-6.077 5.911,-6.077 2.025,0 3.932,0.858 4.885,2.765 l 0,-7.483 1.144,0 z m -10.796,10.796 c 0,3.265 2.168,4.934 4.814,4.934 2.765,0 4.814,-2.025 4.814,-4.957 0,-2.932 -2.097,-4.934 -4.814,-4.934 -2.646,0 -4.814,1.644 -4.814,4.957"
           id="path39"
           inkscape:connector-curvature="0"
           style="fill:#feffff;fill-opacity:1"
           transform="translate(-3.8903255,1.011215)" /><path
           clip-path="url(#SVGID_2_)"
           d="m 215.405,155.358 c -1.191,1.192 -2.741,1.765 -4.29,1.765 -3.313,0 -6.053,-2.36 -6.053,-6.077 0,-3.719 2.645,-6.078 6.053,-6.078 1.549,0 3.099,0.596 4.29,1.764 l -0.739,0.738 c -0.953,-0.953 -2.288,-1.406 -3.551,-1.406 -2.669,0 -4.909,1.812 -4.909,4.982 0,3.169 2.24,4.98 4.909,4.98 1.263,0 2.55,-0.501 3.504,-1.454 l 0.786,0.786 z"
           id="path41"
           inkscape:connector-curvature="0"
           style="fill:#feffff;fill-opacity:1"
           transform="translate(-3.8903255,1.011215)" /><path
           clip-path="url(#SVGID_2_)"
           d="m 234.046,145.158 0,11.773 -1.168,0 0,-2.503 c -1.144,1.836 -2.907,2.694 -4.814,2.694 -3.289,0 -5.982,-2.479 -5.982,-6.078 0,-3.599 2.693,-6.029 5.982,-6.029 1.907,0 3.837,0.883 4.814,2.717 l 0,-2.574 1.168,0 z m -10.796,5.887 c 0,2.955 2.145,4.934 4.814,4.934 6.554,0 6.554,-9.843 0,-9.843 -2.669,0 -4.814,1.954 -4.814,4.909"
           id="path43"
           inkscape:connector-curvature="0"
           style="fill:#feffff;fill-opacity:1"
           transform="translate(-3.8903255,1.011215)" /><path
           clip-path="url(#SVGID_2_)"
           d="m 244.037,145.158 0.048,2.098 c 0.739,-1.597 2.407,-2.217 3.909,-2.217 0.882,-0.023 1.739,0.215 2.525,0.691 l -0.523,0.953 c -0.62,-0.38 -1.313,-0.547 -2.002,-0.547 -2.193,0.022 -3.886,1.786 -3.886,3.931 l 0,6.864 -1.167,0 0,-11.773 1.096,0 z"
           id="path45"
           inkscape:connector-curvature="0"
           style="fill:#feffff;fill-opacity:1"
           transform="translate(-3.8903255,1.011215)" /><path
           clip-path="url(#SVGID_2_)"
           d="m 256.463,151.046 c 0,-3.528 2.669,-6.078 5.982,-6.078 3.313,0 6.268,2.025 5.815,6.626 l -10.606,0 c 0.238,2.765 2.36,4.385 4.791,4.385 1.549,0 3.36,-0.62 4.242,-1.787 l 0.834,0.667 c -1.145,1.501 -3.194,2.265 -5.076,2.265 -3.313,-0.001 -5.982,-2.337 -5.982,-6.078 m 10.748,-0.478 c -0.023,-2.907 -1.93,-4.528 -4.766,-4.528 -2.431,0 -4.528,1.645 -4.791,4.528 l 9.557,0 z"
           id="path47"
           inkscape:connector-curvature="0"
           style="fill:#feffff;fill-opacity:1"
           transform="translate(-3.8903255,1.011215)" /><path
           clip-path="url(#SVGID_2_)"
           d="m 287.586,151.046 c 0,-3.528 2.669,-6.078 5.981,-6.078 3.312,0 6.269,2.025 5.815,6.626 l -10.605,0 c 0.238,2.765 2.359,4.385 4.79,4.385 1.549,0 3.36,-0.62 4.243,-1.787 l 0.834,0.667 c -1.145,1.501 -3.193,2.265 -5.077,2.265 -3.312,-0.001 -5.981,-2.337 -5.981,-6.078 m 10.748,-0.478 c -0.023,-2.907 -1.93,-4.528 -4.767,-4.528 -2.431,0 -4.528,1.645 -4.79,4.528 l 9.557,0 z"
           id="path49"
           inkscape:connector-curvature="0"
           style="fill:#feffff;fill-opacity:1"
           transform="translate(-3.8903255,1.011215)" /><polygon
           clip-path="url(#SVGID_2_)"
           points="305.532,156.884 310.084,150.831 305.866,145.206 305.866,145.158 307.271,145.158 310.775,149.973 314.278,145.158 315.685,145.158 315.685,145.206 311.467,150.831 316.019,156.884 316.019,156.932 314.637,156.932 310.775,151.665 306.914,156.932 305.532,156.932 "
           id="polygon51"
           style="fill:#feffff;fill-opacity:1"
           transform="translate(-3.8903255,1.011215)" /><path
           clip-path="url(#SVGID_2_)"
           d="m 323.496,162.628 0,-17.47 1.145,0 0,2.789 c 0.929,-1.788 2.812,-2.956 5.1,-2.956 3.193,0.119 5.72,2.265 5.72,6.054 0,3.956 -2.669,6.102 -5.982,6.102 -2.002,0 -3.86,-0.978 -4.861,-2.932 l 0,8.413 -1.122,0 z m 10.796,-11.583 c 0,-3.313 -2.146,-4.933 -4.814,-4.933 -2.74,0 -4.767,2.073 -4.767,4.957 0,2.884 2.074,4.957 4.767,4.957 2.668,0 4.814,-1.668 4.814,-4.981"
           id="path53"
           inkscape:connector-curvature="0"
           style="fill:#feffff;fill-opacity:1"
           transform="translate(-3.8903255,1.011215)" /><path
           clip-path="url(#SVGID_2_)"
           d="m 342.938,151.046 c 0,-3.528 2.668,-6.078 5.98,-6.078 3.313,0 6.269,2.025 5.816,6.626 l -10.605,0 c 0.237,2.765 2.359,4.385 4.789,4.385 1.55,0 3.361,-0.62 4.243,-1.787 l 0.834,0.667 c -1.144,1.501 -3.193,2.265 -5.077,2.265 -3.313,-0.001 -5.98,-2.337 -5.98,-6.078 m 10.748,-0.478 c -0.023,-2.907 -1.931,-4.528 -4.768,-4.528 -2.43,0 -4.527,1.645 -4.789,4.528 l 9.557,0 z"
           id="path55"
           inkscape:connector-curvature="0"
           style="fill:#feffff;fill-opacity:1"
           transform="translate(-3.8903255,1.011215)" /><path
           clip-path="url(#SVGID_2_)"
           d="m 363.851,145.158 0.049,2.098 c 0.738,-1.597 2.406,-2.217 3.907,-2.217 0.883,-0.023 1.74,0.215 2.527,0.691 l -0.524,0.953 c -0.62,-0.38 -1.312,-0.547 -2.003,-0.547 -2.192,0.022 -3.884,1.786 -3.884,3.931 l 0,6.864 -1.168,0 0,-11.773 1.096,0 z"
           id="path57"
           inkscape:connector-curvature="0"
           style="fill:#feffff;fill-opacity:1"
           transform="translate(-3.8903255,1.011215)" /><path
           clip-path="url(#SVGID_2_)"
           d="m 380.755,141.607 0,3.551 4.004,0 0,0.978 -4.004,0 0,7.174 c 0,1.597 0.334,2.717 2.168,2.717 0.572,0 1.216,-0.19 1.812,-0.478 l 0.405,0.955 c -0.738,0.356 -1.478,0.595 -2.217,0.595 -2.502,0 -3.313,-1.478 -3.313,-3.789 l 0,-7.174 -2.501,0 0,-0.978 2.501,0 0,-3.432 1.145,-0.119 z"
           id="path59"
           inkscape:connector-curvature="0"
           style="fill:#feffff;fill-opacity:1"
           transform="translate(-3.8903255,1.011215)" /><path
           clip-path="url(#SVGID_2_)"
           d="m 400.412,147.303 c -1.191,-1.048 -2.359,-1.239 -3.67,-1.239 -1.835,-0.023 -3.599,0.668 -3.551,2.169 0.048,1.573 2.097,1.884 3.574,2.146 2.098,0.357 4.981,0.715 4.862,3.456 -0.071,2.598 -2.765,3.289 -4.838,3.289 -2.073,0 -4.123,-0.787 -5.147,-2.36 L 392.5,154 c 0.978,1.407 2.741,2.002 4.313,2.002 1.431,0 3.599,-0.381 3.671,-2.24 0.047,-1.691 -1.907,-2.025 -3.837,-2.336 -2.289,-0.381 -4.552,-0.81 -4.576,-3.169 -0.024,-2.313 2.287,-3.313 4.671,-3.289 1.716,0 3.218,0.477 4.386,1.573 l -0.716,0.762 z"
           id="path61"
           inkscape:connector-curvature="0"
           style="fill:#feffff;fill-opacity:1"
           transform="translate(-3.8903255,1.011215)" /><path
           clip-path="url(#SVGID_2_)"
           d="m 88.467,75.794 c 0,0 30.733,-15.33 48.117,2.054 0,0 10.312,-17.548 38.499,-17.174 0,0 -23.428,-7.188 -39.201,8.587 0,0 -28.748,-12.695 -47.415,6.533"
           id="path63"
           inkscape:connector-curvature="0"
           style="fill:#feae3b;fill-opacity:1"
           transform="translate(-3.8903255,1.011215)" /></g></g></g></svg>